# xmcd CD database file
#
# Track frame offsets:
#	150
#	20193
#	35448
#	52313
#	67973
#	89043
#	105643
#	123513
#	145875
#	163540
#	179955
#	202585
#
# Disc length: 2917 seconds
#
# Revision: 5
# Processed by: cddbd v1.5.2PL0 Copyright (c) Steve Scherf et al.
# Submitted via: CDex 1.70beta3
#
DISCID=b30b630c
DTITLE=Various Artist - 特捜戦隊デカレンジャー コンプリート ソングコレクション [DISC1]
DYEAR=2004
DGENRE=Anime
TTITLE0=サイキックラバー/特捜戦隊デカレンジャー
TTITLE1=ささきいさお／森の木児童合唱団/ミッドナイトデカレンジャー
TTITLE2=高取ヒデアキ/ビルドアップ！デカレンジャーロボ
TTITLE3=ジャスミン&ウメコ with デカレンボーイズ/girls in trouble! DEKARANGER
TTITLE4=サイキックラバー/デカレンジャーアクション
TTITLE5=載寧龍二／ジュニアSP合唱団/デカレンジャーたいそう
TTITLE6=小枝/レスリーの青い月
TTITLE7=サイキックラバー/SWAT ON デカレンジャー
TTITLE8=高取ヒデアキ/飛べよデカウイングロボ！
TTITLE9=朝川ひろこ/私だけのぬくもり
TTITLE10=サイキックラバー/デカレンジャーアクション（アコースティックバージョン）
TTITLE11=朝川ひろこ/私だけのぬくもり（スキャットバージョン）
EXTD=YEAR: 2004
EXTT0=
EXTT1=
EXTT2=
EXTT3=
EXTT4=
EXTT5=
EXTT6=
EXTT7=
EXTT8=
EXTT9=
EXTT10=
EXTT11=
PLAYORDER=
